<!-- public/serginho.svg -->
<svg xmlns="http://www.w3.org/2000/svg" width="512" height="512" viewBox="0 0 512 512">
  <defs>
    <!-- fundo roxo→azul como os chips -->
    <linearGradient id="bg" x1="0" x2="1" y1="0" y2="1">
      <stop offset="0" stop-color="#6d6efb"/>
      <stop offset="1" stop-color="#5cc5ff"/>
    </linearGradient>

    <!-- luz de topo -->
    <radialGradient id="glow" cx="50%" cy="22%" r="60%">
      <stop offset="0" stop-color="rgba(255,255,255,.45)"/>
      <stop offset="1" stop-color="rgba(255,255,255,0)"/>
    </radialGradient>

    <!-- traços de circuito -->
    <linearGradient id="circuit" x1="0" x2="0" y1="0" y2="1">
      <stop offset="0" stop-color="#b9ecff"/>
      <stop offset="1" stop-color="#79d6ff"/>
    </linearGradient>

    <clipPath id="round-rect">
      <rect x="16" y="16" width="480" height="480" rx="96" ry="96"/>
    </clipPath>
  </defs>

  <!-- cartão arredondado -->
  <rect x="16" y="16" width="480" height="480" rx="96" ry="96" fill="url(#bg)"/>
  <rect x="16" y="16" width="480" height="480" rx="96" ry="96" fill="url(#glow)"/>

  <g clip-path="url(#round-rect)">
    <!-- cabeça/ombros -->
    <g transform="translate(0,18)">
      <!-- pescoço/ombros -->
      <path d="M142 408c22-34 76-48 114-48s92 14 114 48v28H142z" fill="rgba(0,0,0,.15)"/>
      <path d="M170 396c16-28 58-40 86-40s70 12 86 40v18H170z" fill="rgba(255,255,255,.15)"/>

      <!-- cabeça -->
      <circle cx="256" cy="248" r="116" fill="rgba(255,255,255,.9)"/>
      <circle cx="256" cy="248" r="114" fill="rgba(0,0,0,.06)"/>
    </g>

    <!-- “olhos” discretos -->
    <g transform="translate(0,18)" fill="rgba(0,0,0,.45)">
      <ellipse cx="220" cy="248" rx="14" ry="10"/>
      <ellipse cx="292" cy="248" rx="14" ry="10"/>
    </g>

    <!-- linhas de circuito (futuro suave) -->
    <g transform="translate(0,18)" stroke="url(#circuit)" stroke-width="4" stroke-linecap="round">
      <path d="M256 130v34"/>
      <circle cx="256" cy="168" r="6" fill="#dff7ff"/>

      <path d="M208 160v24c0 20 16 36 36 36" fill="none"/>
      <circle cx="208" cy="160" r="5" fill="#dff7ff"/>

      <path d="M304 160v24c0 20-16 36-36 36" fill="none"/>
      <circle cx="304" cy="160" r="5" fill="#dff7ff"/>

      <path d="M224 312c10 12 20 18 32 18s22-6 32-18"/>
      <circle cx="224" cy="312" r="5" fill="#dff7ff"/>
      <circle cx="288" cy="312" r="5" fill="#dff7ff"/>
    </g>
  </g>

  <!-- borda suave -->
  <rect x="16" y="16" width="480" height="480" rx="96" ry="96"
        fill="none" stroke="rgba(255,255,255,.55)" stroke-width="3"/>
</svg>
